<?xml version="1.0" encoding="utf-8"?><svg xmlns="http://www.w3.org/2000/svg" xmlns:xlink="http://www.w3.org/1999/xlink"><symbol viewBox="0 0 27 48" id="arrow-left" xmlns="http://www.w3.org/2000/svg"><path d="M.002 23.99c0-.86.323-1.72.97-2.376L21.33.975a3.283 3.283 0 014.688 0 3.392 3.392 0 010 4.754L8.006 23.99l18.012 18.262a3.395 3.395 0 010 4.753 3.284 3.284 0 01-4.69 0L.973 26.365a3.373 3.373 0 01-.97-2.375z"/></symbol><symbol viewBox="0 0 27 48" id="arrow-right" xmlns="http://www.w3.org/2000/svg"><path d="M26.998 24.01c0 .86-.324 1.72-.97 2.375L5.67 47.024a3.283 3.283 0 01-4.688 0 3.392 3.392 0 010-4.753l18.012-18.262L.982 5.748a3.395 3.395 0 010-4.754 3.284 3.284 0 014.69 0l20.356 20.64c.646.655.97 1.515.97 2.375z"/></symbol><symbol viewBox="0 0 31 21" id="cart" xmlns="http://www.w3.org/2000/svg"><path fill="#f5f5f5" d="M30.992 7.365c0 .602-.485 1.09-1.08 1.09h-.595L26 19.59c-.228.765-1.063 1.392-1.855 1.392H6.852c-.792 0-1.627-.627-1.855-1.392L1.681 8.455h-.593a1.085 1.085 0 01-1.081-1.09c0-.6.484-1.09 1.081-1.09H8.65C9.152 2.741 12.017.013 15.498.013c3.482 0 6.346 2.727 6.85 6.262h7.56c.597 0 1.081.49 1.083 1.09zm-21.457 7.08h-3.06l.666 2.239c.228.766 1.063 1.392 1.856 1.392h.538zm0-5.084H6.403c-.793 0-1.255.627-1.027 1.391l.666 2.24h3.493zm8.008 5.085h-3.849v3.63h3.849zm0-5.085h-3.849v3.632h3.849zm6.98 5.085h-2.821v3.631H22c.792 0 1.627-.627 1.855-1.392zm.073-5.084h-2.894v3.632h3.254l.665-2.24c.228-.765-.234-1.392-1.025-1.392zM10.819 6.275h9.36c-.466-2.33-2.384-4.084-4.681-4.084-2.295 0-4.215 1.754-4.68 4.084z"/></symbol><symbol viewBox="0 0 8 15" id="fb" xmlns="http://www.w3.org/2000/svg"><path d="M7.2.642c-.225-.034-1.004-.1-1.91-.1-1.892 0-3.19 1.155-3.19 3.275v1.826H-.038v2.48H2.1v6.358h2.564V8.123H6.79l.327-2.48H4.663V4.06c0-.712.192-1.206 1.223-1.206H7.2z"/></symbol><symbol viewBox="0 0 13 13" id="phone" xmlns="http://www.w3.org/2000/svg"><path d="M12.568 9.857c0-.062 0-.125-.026-.187-.063-.187-.5-.384-.679-.473-.509-.286-1.026-.563-1.526-.857-.232-.143-.518-.41-.795-.41-.544 0-1.339 1.615-1.82 1.615-.242 0-.554-.223-.768-.348-1.625-.902-2.75-2.027-3.651-3.65-.125-.215-.348-.528-.348-.769 0-.482 1.615-1.276 1.615-1.82 0-.277-.268-.563-.41-.795-.295-.5-.572-1.018-.857-1.527-.09-.178-.286-.615-.473-.678-.063-.027-.125-.027-.188-.027-.321 0-.946.143-1.24.277C.963.396.677.895.454 1.298.17 1.823 0 2.358 0 2.957c0 .83.34 1.58.616 2.338.196.545.437 1.071.74 1.562.938 1.518 2.768 3.348 4.285 4.285a8.348 8.348 0 001.563.74c.758.277 1.508.617 2.338.617.598 0 1.134-.17 1.66-.456.402-.223.902-.508 1.09-.946.134-.294.276-.92.276-1.24z"/></symbol><symbol viewBox="0 0 13 14" id="search" xmlns="http://www.w3.org/2000/svg"><path d="M12.945 11.195c.15.15.15.3 0 .45l-1.39 1.413a.351.351 0 01-.26.096.31.31 0 01-.226-.096l-2.715-2.761c-.82.492-1.682.738-2.587.738-1.401 0-2.608-.498-3.62-1.493-1.014-.995-1.52-2.2-1.52-3.611 0-1.413.506-2.617 1.52-3.612C3.158 1.324 4.365.826 5.766.826c1.401 0 2.603.498 3.605 1.493 1.002.995 1.503 2.199 1.503 3.612 0 .898-.226 1.733-.678 2.504zm-4.98-7.464a2.978 2.978 0 00-2.198-.914c-.862 0-1.6.305-2.214.914a2.988 2.988 0 00-.922 2.2c0 .856.307 1.589.922 2.198a3.03 3.03 0 002.214.916 2.98 2.98 0 002.199-.916c.603-.61.905-1.342.905-2.198 0-.856-.302-1.59-.905-2.2z"/></symbol><symbol viewBox="0 0 17 11" id="vk" xmlns="http://www.w3.org/2000/svg"><path d="M15.607.763h-1.729c-.351 0-.596.166-.732.498l-.264.557c-.176.39-.44.879-.79 1.465a9.574 9.574 0 01-1.085 1.494c-.351.351-.62.527-.806.527-.185 0-.278-.166-.278-.498V1.408c0-.43-.156-.645-.469-.645H6.73a.465.465 0 00-.38.205.36.36 0 00-.06.205c0 .079.034.166.103.264.068.098.141.19.22.278.077.088.156.23.234.425.078.196.127.43.146.704v2.548c0 .254-.024.425-.073.513-.049.088-.132.132-.249.132-.312 0-.767-.47-1.362-1.407C4.713 3.693 4.21 2.628 3.8 1.437c-.078-.254-.171-.43-.278-.527-.108-.098-.269-.147-.484-.147H1.31c-.391 0-.586.166-.586.498 0 .196.068.528.205.997.136.468.425 1.147.864 2.036.44.889.991 1.782 1.655 2.68.704 1.016 1.524 1.797 2.461 2.344.938.547 1.865.82 2.784.82.527 0 .868-.053 1.025-.16.156-.108.234-.28.234-.514 0-.194-.01-.449-.029-.761 0-.645.02-1.035.059-1.172.039-.136.175-.205.41-.205.37 0 .947.371 1.728 1.113a18.795 18.795 0 011.026 1.113c.097.117.205.225.322.323.117.098.224.165.322.205a.95.95 0 00.352.058h1.728c.528 0 .723-.244.586-.732a3.472 3.472 0 00-.307-.586 6.49 6.49 0 00-.498-.689 20.705 20.705 0 00-1.187-1.304c-.176-.175-.39-.4-.644-.673-.118-.195-.176-.332-.176-.41 0-.078.058-.205.176-.381a46.696 46.696 0 001.626-2.52c.4-.664.63-1.142.688-1.435.117-.43-.059-.645-.527-.645z"/></symbol><symbol viewBox="0 0 14 13" id="whatsapp" xmlns="http://www.w3.org/2000/svg"><path d="M6.73-.112c1.796 0 3.33.635 4.6 1.904 1.308 1.31 1.962 2.842 1.962 4.6 0 1.797-.644 3.33-1.933 4.6-1.29 1.269-2.833 1.904-4.63 1.904a6.332 6.332 0 01-3.105-.791l-3.457.908.938-3.369a6.3 6.3 0 01-.88-3.252c0-1.797.635-3.33 1.905-4.6C3.4.523 4.933-.112 6.73-.112zM3.976 11.051a5.22 5.22 0 002.754.761c1.484 0 2.763-.532 3.838-1.597 1.074-1.064 1.611-2.338 1.611-3.823.02-1.445-.527-2.714-1.64-3.808C9.483 1.529 8.213 1 6.728 1c-1.484 0-2.758.528-3.822 1.583C1.842 3.639 1.31 4.908 1.31 6.392a5.19 5.19 0 00.85 2.871l.117.205-.557 1.993 2.05-.528zm4.6-3.839c.156.059.527.235 1.113.528.195.098.302.166.322.205.059.117.02.38-.117.791-.059.156-.21.318-.454.483-.245.166-.454.26-.63.278-.508.079-1.162-.058-1.963-.41-.957-.41-1.875-1.23-2.754-2.46-.45-.606-.674-1.162-.674-1.67 0-.488.186-.948.557-1.378a.664.664 0 01.44-.175h.322c.175 0 .293.088.351.263l.498 1.202c.059.117.068.215.03.292a1.643 1.643 0 01-.294.455l-.205.22c-.02.02-.01.087.03.205.273.508.571.888.893 1.142.323.254.757.518 1.304.791.156.078.273.069.352-.03.253-.292.429-.507.527-.643.078-.118.195-.147.351-.089z"/></symbol></svg>